<svg width="25" height="12" viewBox="0 0 25 12" fill="none" xmlns="http://www.w3.org/2000/svg">
<rect x="2.5" y="2" width="14" height="7.5" rx="1" fill="black"/>
<path fill-rule="evenodd" clip-rule="evenodd" d="M3.5 0C1.84315 0 0.5 1.34315 0.5 3V8.5C0.5 10.1569 1.84315 11.5 3.5 11.5H19.5C21.1569 11.5 22.5 10.1569 22.5 8.5V3C22.5 1.34315 21.1569 0 19.5 0H3.5ZM1.5 3C1.5 1.89543 2.39543 1 3.5 1H19.5C20.6046 1 21.5 1.89543 21.5 3V8.5C21.5 9.60457 20.6046 10.5 19.5 10.5H3.5C2.39543 10.5 1.5 9.60457 1.5 8.5V3ZM24.5 5C24.5 4.44772 24.0523 4 23.5 4V7.5C24.0523 7.5 24.5 7.05228 24.5 6.5V5Z" fill="#858789"/>
</svg>
