<svg width="17" height="11" viewBox="0 0 17 11" fill="none" xmlns="http://www.w3.org/2000/svg">
<path fill-rule="evenodd" clip-rule="evenodd" d="M15 0.5C14.4477 0.5 14 0.947715 14 1.5V10C14 10.5523 14.4477 11 15 11H16C16.5523 11 17 10.5523 17 10V1.5C17 0.947715 16.5523 0.5 16 0.5H15ZM10.5 2.5C9.94772 2.5 9.5 2.94772 9.5 3.5V10C9.5 10.5523 9.94771 11 10.5 11H11.5C12.0523 11 12.5 10.5523 12.5 10V3.5C12.5 2.94772 12.0523 2.5 11.5 2.5H10.5ZM5 6C5 5.44772 5.44772 5 6 5H7C7.55228 5 8 5.44772 8 6V10C8 10.5523 7.55228 11 7 11H6C5.44772 11 5 10.5523 5 10V6ZM1.5 7C0.947715 7 0.5 7.44772 0.5 8V10C0.5 10.5523 0.947715 11 1.5 11H2.5C3.05228 11 3.5 10.5523 3.5 10V8C3.5 7.44772 3.05228 7 2.5 7H1.5Z" fill="black"/>
</svg>
